<?xml version="1.0" encoding="utf-8"?>
<!-- Generator: Adobe Illustrator 24.3.0, SVG Export Plug-In . SVG Version: 6.00 Build 0)  -->
<svg version="1.1" id="Layer_1" xmlns="http://www.w3.org/2000/svg" xmlns:xlink="http://www.w3.org/1999/xlink" x="0px" y="0px"
	 viewBox="0 0 450 175.2" style="enable-background:new 0 0 450 175.2;" xml:space="preserve">
<style type="text/css">
	.st0{fill:#231F20;}
</style>
<g id="Layer_2_1_">
	<g id="Layer_1-2">
		<path class="st0" d="M8.7,132.6c4.6,1,6.7,2.7,6.7,5.8c0,3.6-2.9,5.9-7,5.9c-3.1,0-6.2-1.1-8.4-3.3l1.4-1.7c1.9,1.9,4.4,2.9,7,2.9
			c2.8,0,4.6-1.4,4.6-3.5c0-1.9-1-3-5.3-3.9c-4.7-1-6.9-2.6-6.9-6s2.8-5.7,6.8-5.7c2.6-0.1,5.2,0.8,7.2,2.5l-1.4,1.8
			c-1.6-1.4-3.8-2.2-5.9-2.2c-2.7,0-4.4,1.5-4.4,3.3C3.1,130.4,4.2,131.6,8.7,132.6"/>
		<rect x="21.7" y="123.4" class="st0" width="2.3" height="20.6"/>
		<polygon class="st0" points="46.5,123.4 48.8,123.4 48.8,144 46.9,144 33.6,127.1 33.6,144 31.4,144 31.4,123.4 33.5,123.4 
			46.5,139.9 		"/>
		<path class="st0" d="M65.1,144.4c-6.5,0-10.5-4.7-10.5-10.6c0-5.7,4.2-10.7,10.3-10.7c2.8-0.1,5.6,0.9,7.7,2.7l-1.5,1.8
			c-1.7-1.6-3.9-2.4-6.3-2.3c-4.5,0-7.8,3.8-7.8,8.5c0,4.9,3.2,8.6,8.1,8.6c2.2,0,4.2-0.7,5.9-2.1v-5.1h-6.3V133h8.5v8.2
			C71.1,143.2,68.2,144.3,65.1,144.4"/>
		<path class="st0" d="M88.2,126l-4.7,10.5h9.4L88.2,126z M98.7,144h-2.5l-2.4-5.4H82.6l-2.4,5.4h-2.4l9.4-20.7h2.2L98.7,144z"/>
		<path class="st0" d="M111.1,125.6h-5.2v9h5.1c3.4,0,5.7-1.8,5.7-4.6C116.7,127.1,114.4,125.6,111.1,125.6 M110.9,136.7h-5v7.3
			h-2.3v-20.6h7.7c4.6,0,7.7,2.5,7.7,6.5C119,134.4,115.3,136.7,110.9,136.7"/>
		<path class="st0" d="M134,125.2c-4.7,0-8.1,3.8-8.1,8.5s3.4,8.5,8.1,8.5s8-3.8,8-8.5S138.6,125.2,134,125.2 M133.9,144.4
			c-5.9,0.1-10.7-4.6-10.8-10.5c-0.1-5.9,4.6-10.7,10.5-10.8c5.9-0.1,10.7,4.6,10.8,10.5c0,0,0,0.1,0,0.1c0.2,5.7-4.3,10.5-10,10.7
			C134.3,144.4,134.2,144.4,133.9,144.4"/>
		<path class="st0" d="M158.9,125.6h-6.4v8.3h6.3c3.1,0,5.3-1.6,5.3-4.3S162.3,125.6,158.9,125.6 M164.4,144l-6-8h-5.9v8h-2.3v-20.6
			h8.9c4.5,0,7.4,2.4,7.4,6.1c0,3.4-2.4,5.4-5.6,6l6.3,8.4L164.4,144z"/>
		<polygon class="st0" points="187.7,125.5 175.2,125.5 175.2,132.6 186.4,132.6 186.4,134.7 175.2,134.7 175.2,141.9 187.9,141.9 
			187.9,144 172.8,144 172.8,123.4 187.7,123.4 		"/>
		<path class="st0" d="M223.5,135.2c0,6-3.4,9.1-8.6,9.1s-8.6-3.1-8.6-8.9v-12h2.3v11.8c0,4.4,2.4,6.9,6.3,6.9
			c3.8,0,6.2-2.3,6.2-6.8v-12h2.3V135.2z"/>
		<polygon class="st0" points="245.4,123.4 247.7,123.4 247.7,144 245.8,144 232.5,127.1 232.5,144 230.3,144 230.3,123.4 
			232.4,123.4 245.4,139.9 		"/>
		<rect x="255" y="123.4" class="st0" width="2.3" height="20.6"/>
		<polygon class="st0" points="279.7,123.4 282.2,123.4 273.4,144.1 271.3,144.1 262.5,123.4 265.1,123.4 272.4,141.1 		"/>
		<polygon class="st0" points="302,125.5 289.5,125.5 289.5,132.6 300.7,132.6 300.7,134.7 289.5,134.7 289.5,141.9 302.2,141.9 
			302.2,144 287.2,144 287.2,123.4 302,123.4 		"/>
		<path class="st0" d="M316.8,125.6h-6.4v8.3h6.3c3.1,0,5.3-1.6,5.3-4.3S320.2,125.6,316.8,125.6 M322.3,144l-6-8h-5.9v8h-2.3v-20.6
			h8.9c4.5,0,7.4,2.4,7.4,6.1c0,3.4-2.4,5.4-5.6,6l6.3,8.4L322.3,144z"/>
		<path class="st0" d="M338.1,132.6c4.6,1,6.7,2.7,6.7,5.8c0,3.6-2.9,5.9-7,5.9c-3.1,0-6.1-1.1-8.4-3.3l1.4-1.7
			c1.9,1.9,4.4,2.9,7.1,2.9c2.8,0,4.6-1.4,4.6-3.5c0-1.9-1-3-5.4-3.9c-4.7-1-6.9-2.6-6.9-6s2.9-5.7,6.8-5.7c2.6-0.1,5.2,0.8,7.2,2.5
			l-1.4,1.8c-1.6-1.4-3.7-2.2-5.9-2.2c-2.7,0-4.4,1.5-4.4,3.3C332.6,130.4,333.6,131.6,338.1,132.6"/>
		<rect x="351.1" y="123.4" class="st0" width="2.3" height="20.6"/>
		<polygon class="st0" points="368.1,144 365.7,144 365.7,125.6 358.8,125.6 358.8,123.4 375,123.4 375,125.6 368.1,125.6 		"/>
		<polygon class="st0" points="388.7,144 386.4,144 386.4,135.9 377.8,123.4 380.6,123.4 387.6,133.7 394.6,123.4 397.3,123.4 
			388.7,135.8 		"/>
		<path class="st0" d="M418.9,125.2c-4.7,0-8.1,3.8-8.1,8.5s3.4,8.5,8.1,8.5s8-3.8,8-8.5S423.6,125.2,418.9,125.2 M418.9,144.4
			c-5.9,0.1-10.7-4.6-10.8-10.5c-0.1-5.9,4.6-10.7,10.5-10.8s10.7,4.6,10.8,10.5c0,0,0,0.1,0,0.1c0.2,5.7-4.3,10.5-10,10.7
			C419.2,144.4,419,144.4,418.9,144.4"/>
		<polygon class="st0" points="450,125.6 437.5,125.6 437.5,132.9 448.7,132.9 448.7,135 437.5,135 437.5,144 435.2,144 
			435.2,123.4 450,123.4 		"/>
		<polygon class="st0" points="9.3,174.9 6.9,174.9 6.9,156.4 0,156.4 0,154.3 16.2,154.3 16.2,156.4 9.3,156.4 		"/>
		<polygon class="st0" points="36.8,156.4 24.3,156.4 24.3,163.4 35.5,163.4 35.5,165.5 24.3,165.5 24.3,172.7 37,172.7 37,174.9 
			22,174.9 22,154.3 36.8,154.3 		"/>
		<path class="st0" d="M53,175.2c-5.9-0.2-10.5-5.1-10.3-11c0.2-5.6,4.7-10.1,10.4-10.3c3-0.1,5.9,1.1,8,3.3l-1.6,1.7
			c-1.7-1.8-4-2.8-6.5-2.8c-4.6,0-8,3.7-8,8.5s3.4,8.5,8,8.5c2.8,0,4.7-1.1,6.6-3l1.5,1.5C59.1,173.9,56.1,175.3,53,175.2"/>
		<polygon class="st0" points="69.8,165.6 69.8,174.9 67.5,174.9 67.5,154.3 69.8,154.3 69.8,163.4 81.7,163.4 81.7,154.3 84,154.3 
			84,174.9 81.7,174.9 81.7,165.6 		"/>
		<polygon class="st0" points="107.4,154.3 109.7,154.3 109.7,174.9 107.9,174.9 94.6,158 94.6,174.9 92.3,174.9 92.3,154.3 
			94.5,154.3 107.4,170.8 		"/>
		<path class="st0" d="M126.7,156.1c-4.7,0-8,3.8-8,8.5s3.4,8.5,8.1,8.5s8-3.8,8-8.5S131.4,156.1,126.7,156.1 M126.7,175.2
			c-5.9,0.1-10.7-4.6-10.8-10.5c-0.1-5.9,4.6-10.7,10.5-10.8c5.9-0.1,10.7,4.6,10.8,10.5c0,0,0,0.1,0,0.1c0.2,5.7-4.3,10.5-10,10.7
			C127.1,175.2,126.9,175.2,126.7,175.2"/>
		<polygon class="st0" points="143.8,154.3 146.1,154.3 146.1,172.7 157.6,172.7 157.6,174.9 143.8,174.9 		"/>
		<path class="st0" d="M171.1,156.1c-4.7,0-8.1,3.8-8.1,8.5s3.4,8.5,8.1,8.5s8.1-3.8,8.1-8.5c0.2-4.5-3.3-8.3-7.9-8.5
			C171.2,156.1,171.1,156.1,171.1,156.1 M171.1,175.2c-5.9,0.1-10.7-4.6-10.8-10.5c-0.1-5.9,4.6-10.7,10.5-10.8
			c5.9-0.1,10.7,4.6,10.8,10.5c0,0,0,0.1,0,0.1c0.2,5.7-4.3,10.5-10,10.7C171.4,175.2,171.2,175.2,171.1,175.2"/>
		<path class="st0" d="M197.5,175.2c-6.5,0-10.5-4.7-10.5-10.6c0-5.7,4.1-10.7,10.3-10.7c2.8-0.1,5.6,0.9,7.7,2.7l-1.5,1.8
			c-1.7-1.6-3.9-2.4-6.3-2.4c-4.6,0-7.8,3.9-7.8,8.5c0,4.9,3.1,8.6,8.1,8.6c2.2,0,4.2-0.7,5.9-2.1V166h-6.3v-2.1h8.5v8.2
			C203.5,174.1,200.6,175.2,197.5,175.2"/>
		<polygon class="st0" points="220.4,174.9 218,174.9 218,166.7 209.5,154.3 212.3,154.3 219.2,164.6 226.2,154.3 228.9,154.3 
			220.4,166.7 		"/>
		<path class="st0" d="M252,156.8l-4.7,10.5h9.4L252,156.8z M262.5,174.8H260l-2.4-5.4h-11.2l-2.4,5.5h-2.4l9.4-20.7h2.2
			L262.5,174.8z"/>
		<polygon class="st0" points="283.3,154.3 285.6,154.3 285.6,174.9 283.7,174.9 270.4,158 270.4,174.9 268.2,174.9 268.2,154.3 
			270.4,154.3 283.3,170.8 		"/>
		<path class="st0" d="M301,156.4h-4.8v16.3h4.8c5.2,0,8.5-3.5,8.5-8.1S306.2,156.4,301,156.4 M301,174.9h-7.1v-20.6h7.1
			c6.5,0,10.9,4.4,10.9,10.3S307.5,174.9,301,174.9"/>
		<path class="st0" d="M336.5,156.4h-4.8v16.3h4.8c5.2,0,8.5-3.5,8.5-8.1S341.7,156.4,336.5,156.4 M336.5,174.9h-7.1v-20.6h7.1
			c6.5,0,10.9,4.4,10.9,10.3S343,174.9,336.5,174.9"/>
		<polygon class="st0" points="369.1,156.4 356.6,156.4 356.6,163.4 367.8,163.4 367.8,165.5 356.6,165.5 356.6,172.7 369.3,172.7 
			369.3,174.9 354.3,174.9 354.3,154.3 369.1,154.3 		"/>
		<path class="st0" d="M383.2,163.5c4.6,1,6.7,2.7,6.7,5.8c0,3.6-2.9,5.9-7,5.9c-3.1,0-6.1-1.1-8.4-3.3l1.4-1.7
			c1.9,1.9,4.4,2.9,7,2.9c2.8,0,4.6-1.4,4.6-3.5c0-1.9-1-3-5.3-3.9c-4.7-1-6.9-2.6-6.9-6s2.9-5.6,6.8-5.6c2.6-0.1,5.2,0.8,7.2,2.5
			l-1.3,1.8c-1.6-1.4-3.8-2.2-5.9-2.2c-2.7,0-4.4,1.5-4.4,3.4S378.7,162.5,383.2,163.5"/>
		<rect x="397.4" y="154.3" class="st0" width="2.3" height="20.6"/>
		<path class="st0" d="M416.6,175.2c-6.5,0-10.5-4.7-10.5-10.6c0-5.7,4.1-10.7,10.3-10.7c2.8-0.1,5.6,0.9,7.7,2.7l-1.5,1.8
			c-1.7-1.6-3.9-2.4-6.3-2.4c-4.6,0-7.8,3.9-7.8,8.5c0,4.9,3.1,8.6,8.1,8.6c2.2,0,4.2-0.7,5.9-2.1V166h-6.3v-2.1h8.5v8.2
			C422.6,174.1,419.6,175.2,416.6,175.2"/>
		<polygon class="st0" points="447.7,154.3 450,154.3 450,174.9 448.1,174.9 434.8,158 434.8,174.9 432.6,174.9 432.6,154.3 
			434.8,154.3 447.7,170.8 		"/>
		<rect y="69.4" class="st0" width="79.7" height="10.3"/>
		<rect x="23.1" y="23.1" class="st0" width="79.7" height="10.3"/>
		<polygon class="st0" points="102.9,102.9 0,102.9 0,92.6 92.6,92.6 92.6,56.6 0,56.6 0,0 102.9,0 102.9,10.3 10.3,10.3 10.3,46.3 
			102.9,46.3 		"/>
		<rect x="162" y="0" class="st0" width="10.3" height="56.6"/>
		<polygon class="st0" points="218.6,102.9 115.7,102.9 115.7,0 126,0 126,92.6 208.3,92.6 208.3,0 218.6,0 		"/>
		<polygon class="st0" points="195.4,79.7 138.9,79.7 138.9,0 149.1,0 149.1,69.4 185.1,69.4 185.1,0 195.4,0 		"/>
		<rect x="347.1" y="46.3" class="st0" width="56.6" height="10.3"/>
		<polygon class="st0" points="450,102.9 347.1,102.9 347.1,92.6 439.7,92.6 439.7,10.3 347.1,10.3 347.1,0 450,0 		"/>
		<polygon class="st0" points="426.9,79.7 347.1,79.7 347.1,69.4 416.6,69.4 416.6,33.4 347.1,33.4 347.1,23.1 426.9,23.1 		"/>
		<polygon class="st0" points="231.4,0 231.4,10.3 277.7,10.3 277.7,102.9 288,102.9 288,10.3 334.3,10.3 334.3,0 		"/>
		<polygon class="st0" points="300.9,102.9 311.1,102.9 311.1,33.4 334.3,33.4 334.3,23.1 300.9,23.1 		"/>
		<rect x="324" y="46.3" class="st0" width="10.3" height="56.6"/>
		<rect x="231.4" y="46.3" class="st0" width="10.3" height="56.6"/>
		<polygon class="st0" points="231.4,33.4 254.6,33.4 254.6,102.9 264.9,102.9 264.9,23.1 231.4,23.1 		"/>
	</g>
</g>
</svg>
