{"accessors" : [{"bufferView" : 0, "byteOffset" : 0, "componentType" : 5123, "count" : 10704, "type" : "SCALAR", "max" : [9025], "min" : [0]}, {"bufferView" : 1, "byteOffset" : 0, "componentType" : 5126, "count" : 9026, "type" : "VEC3", "max" : [25.600000381469727, 25.600000381469727, 31.23200035095215], "min" : [-25.600000381469727, -25.600000381469727, -2.4662506348249735E-07], "name" : "POSITION"}, {"bufferView" : 1, "byteOffset" : 12, "componentType" : 5126, "count" : 9026, "type" : "VEC3", "max" : [0.9987999796867371, 0.9987999796867371, 1.0000044107437134], "min" : [-0.9987999796867371, -0.9987999796867371, -0.7574394345283508], "name" : "NORMAL"}, {"bufferView" : 1, "byteOffset" : 24, "componentType" : 5126, "count" : 9026, "type" : "VEC2", "max" : [0.99853515625, -0], "min" : [0, -0.9423570036888123], "name" : "TEXCOORD_0"}, {"bufferView" : 0, "byteOffset" : 21408, "componentType" : 5123, "count" : 1332, "type" : "SCALAR", "max" : [1132], "min" : [0]}, {"bufferView" : 2, "byteOffset" : 0, "componentType" : 5126, "count" : 1133, "type" : "VEC3", "max" : [-4.358713626861572, 1, 23.261625289916992], "min" : [-5.716660499572754, -1, 20.718637466430664], "name" : "POSITION"}, {"bufferView" : 2, "byteOffset" : 12, "componentType" : 5126, "count" : 1133, "type" : "VEC3", "max" : [0.9783293008804321, 1.0000044107437134, 0.7938461899757385], "min" : [-1.0000011920928955, -1.0000044107437134, -1.0000044107437134], "name" : "NORMAL"}, {"bufferView" : 2, "byteOffset" : 24, "componentType" : 5126, "count" : 1133, "type" : "VEC2", "max" : [1, -0], "min" : [0, -1], "name" : "TEXCOORD_0"}, {"bufferView" : 0, "byteOffset" : 24072, "componentType" : 5123, "count" : 1776, "type" : "SCALAR", "max" : [1539], "min" : [0]}, {"bufferView" : 3, "byteOffset" : 0, "componentType" : 5126, "count" : 1540, "type" : "VEC3", "max" : [5.169044017791748, 1, 22.4471378326416], "min" : [3.827799081802368, -1, 20.441387176513672], "name" : "POSITION"}, {"bufferView" : 3, "byteOffset" : 12, "componentType" : 5126, "count" : 1540, "type" : "VEC3", "max" : [1.000003695487976, 1.0000044107437134, 0.988446056842804], "min" : [-0.9990668296813965, -1.0000044107437134, -0.9999628663063049], "name" : "NORMAL"}, {"bufferView" : 3, "byteOffset" : 24, "componentType" : 5126, "count" : 1540, "type" : "VEC2", "max" : [1, -0], "min" : [0, -1], "name" : "TEXCOORD_0"}, {"bufferView" : 0, "byteOffset" : 27624, "componentType" : 5123, "count" : 3852, "type" : "SCALAR", "max" : [3304], "min" : [0]}, {"bufferView" : 4, "byteOffset" : 0, "componentType" : 5126, "count" : 3305, "type" : "VEC3", "max" : [5.716760158538818, 1, 25.038969039916992], "min" : [-5.518421649932861, -1, 10.008626937866211], "name" : "POSITION"}, {"bufferView" : 4, "byteOffset" : 12, "componentType" : 5126, "count" : 3305, "type" : "VEC3", "max" : [1.0000044107437134, 1.0000044107437134, 0.9999562501907349], "min" : [-1.0000044107437134, -1.0000044107437134, -0.9999406337738037], "name" : "NORMAL"}, {"bufferView" : 4, "byteOffset" : 24, "componentType" : 5126, "count" : 3305, "type" : "VEC2", "max" : [1, -0], "min" : [0, -1], "name" : "TEXCOORD_0"}, {"bufferView" : 0, "byteOffset" : 35328, "componentType" : 5123, "count" : 1752, "type" : "SCALAR", "max" : [1505], "min" : [0]}, {"bufferView" : 5, "byteOffset" : 0, "componentType" : 5126, "count" : 1506, "type" : "VEC3", "max" : [0.9923266172409058, 1, 28.007423400878906], "min" : [-1.1403712034225464, -1, 25.196287155151367], "name" : "POSITION"}, {"bufferView" : 5, "byteOffset" : 12, "componentType" : 5126, "count" : 1506, "type" : "VEC3", "max" : [0.9953319430351257, 1.0000044107437134, 0.9997079968452454], "min" : [-0.9932062029838562, -1.0000044107437134, -0.9999529123306274], "name" : "NORMAL"}, {"bufferView" : 5, "byteOffset" : 24, "componentType" : 5126, "count" : 1506, "type" : "VEC2", "max" : [1, -0], "min" : [0, -1], "name" : "TEXCOORD_0"}], "asset" : {"generator" : "Aspose.3D 22.5.1", "version" : "2.0"}, "buffers" : [{"uri" : "data:application/octet-stream;base64,", "byteLength" : 660168}], "bufferViews" : [{"buffer" : 0, "byteOffset" : 0, "byteLength" : 38832, "target" : 34963}, {"buffer" : 0, "byteOffset" : 38836, "byteLength" : 342528, "byteStride" : 32, "target" : 34962}, {"buffer" : 0, "byteOffset" : 381368, "byteLength" : 42624, "byteStride" : 32, "target" : 34962}, {"buffer" : 0, "byteOffset" : 423996, "byteLength" : 56832, "byteStride" : 32, "target" : 34962}, {"buffer" : 0, "byteOffset" : 480832, "byteLength" : 123264, "byteStride" : 32, "target" : 34962}, {"buffer" : 0, "byteOffset" : 604100, "byteLength" : 56064, "byteStride" : 32, "target" : 34962}], "cameras" : [{"perspective" : {"aspectRatio" : 1.3333333333333333, "yfov" : 0.43833943764363487, "zfar" : 4000, "znear" : 10}, "type" : "perspective", "name" : "Perspective"}, {"perspective" : {"aspectRatio" : 1.3333333333333333, "yfov" : 0.43833943764363487, "zfar" : 4000, "znear" : 10}, "type" : "perspective", "name" : "Top"}, {"perspective" : {"aspectRatio" : 1.3333333333333333, "yfov" : 0.43833943764363487, "zfar" : 4000, "znear" : 10}, "type" : "perspective", "name" : "Front"}, {"perspective" : {"aspectRatio" : 1.3333333333333333, "yfov" : 0.43833943764363487, "zfar" : 4000, "znear" : 10}, "type" : "perspective", "name" : "Right"}], "materials" : [{"name" : "Glass", "pbrMetallicRoughness" : {"baseColorFactor" : [0, 0, 0, 0.47058823529411764], "metallicFactor" : 0, "roughnessFactor" : 0}, "emissiveFactor" : [0, 0, 0], "alphaMode" : "BLEND", "doubleSided" : false}, {"name" : "Plastic", "pbrMetallicRoughness" : {"baseColorFactor" : [0.4627450980392157, 0.3058823529411765, 0.25098039215686274, 1], "metallicFactor" : 0, "roughnessFactor" : 0}, "emissiveFactor" : [0, 0, 0], "alphaMode" : "OPAQUE", "doubleSided" : false}, {"name" : "Plastic", "pbrMetallicRoughness" : {"baseColorFactor" : [0.4627450980392157, 0.3058823529411765, 0.25098039215686274, 1], "metallicFactor" : 0, "roughnessFactor" : 0}, "emissiveFactor" : [0, 0, 0], "alphaMode" : "OPAQUE", "doubleSided" : false}, {"name" : "Plastic", "pbrMetallicRoughness" : {"baseColorFactor" : [0.4627450980392157, 0.3058823529411765, 0.25098039215686274, 1], "metallicFactor" : 0, "roughnessFactor" : 0}, "emissiveFactor" : [0, 0, 0], "alphaMode" : "OPAQUE", "doubleSided" : false}, {"name" : "Plastic", "pbrMetallicRoughness" : {"baseColorFactor" : [0.4627450980392157, 0.3058823529411765, 0.25098039215686274, 1], "metallicFactor" : 0, "roughnessFactor" : 0}, "emissiveFactor" : [0, 0, 0], "alphaMode" : "OPAQUE", "doubleSided" : false}], "meshes" : [{"primitives" : [{"attributes" : {"POSITION" : 1, "NORMAL" : 2, "TEXCOORD_0" : 3}, "indices" : 0, "material" : 0, "mode" : 4}], "name" : "diamondpink_dmesh.004"}, {"primitives" : [{"attributes" : {"POSITION" : 5, "NORMAL" : 6, "TEXCOORD_0" : 7}, "indices" : 4, "material" : 1, "mode" : 4}], "name" : "Object_1"}, {"primitives" : [{"attributes" : {"POSITION" : 9, "NORMAL" : 10, "TEXCOORD_0" : 11}, "indices" : 8, "material" : 2, "mode" : 4}], "name" : "Object_2"}, {"primitives" : [{"attributes" : {"POSITION" : 13, "NORMAL" : 14, "TEXCOORD_0" : 15}, "indices" : 12, "material" : 3, "mode" : 4}], "name" : "Object_3"}, {"primitives" : [{"attributes" : {"POSITION" : 17, "NORMAL" : 18, "TEXCOORD_0" : 19}, "indices" : 16, "material" : 4, "mode" : 4}], "name" : "Object_4"}], "nodes" : [{"mesh" : 0, "name" : "diamondpink_dmesh.004"}, {"mesh" : 1, "name" : "Object_1"}, {"mesh" : 2, "name" : "Object_2"}, {"mesh" : 3, "name" : "Object_3"}, {"mesh" : 4, "name" : "Object_4"}, {"children" : [0, 1, 2, 3, 4], "name" : "Layer 01"}, {"camera" : 0, "matrix" : [-0.5364303158584478, -0.8166145044396431, -0.21303348883873158, 0, 0.8166145044396432, -0.438530757454745, -0.3752752668441709, 0, 0.21303348883873158, -0.3752752668441709, 0.9021004415962971, 0, 64.1415688617047, 136.15934663075421, 4.039782814907576, 1], "name" : "Perspective"}, {"camera" : 1, "matrix" : [6.123233995736766E-17, 0, -1, 0, 0, 1, 0, 0, 1, 0, 6.123233995736766E-17, 0, -19.30382146903796, 3.094733610748965, 52.21542111002346, 1], "name" : "Top"}, {"camera" : 2, "matrix" : [6.123233995736766E-17, 1, 0, 0, -1, 6.123233995736766E-17, 0, 0, 0, 0, 1, 0, -5.930758530242039, -12664.140339203012, -3.013118711059225, 1], "name" : "Front"}, {"camera" : 3, "matrix" : [1, 0, 0, 0, 0, -1, 1.2246467991473532E-16, 0, 0, -1.2246467991473532E-16, -1, 0, 116.20684100812942, 8.818586308779743, 18.53076375287655, 1], "name" : "Right"}], "scene" : 0, "scenes" : [{"nodes" : [5, 6, 7, 8, 9]}]}